<?xml version="1.0" encoding="UTF-8"?><svg id="a" xmlns="http://www.w3.org/2000/svg" viewBox="0 0 1080 217.98"><defs><style>.c{fill:#fff;stroke-width:0px;}</style></defs><g id="b"><path class="c" d="m302.31,156.88c3.98-3.13,6.95-6.95,8.91-11.46,1.96-4.51,2.94-9.73,2.94-15.68,0-8.49-1.65-15.44-4.93-20.85-3.29-5.41-8.17-9.41-14.64-12.02-6.47-2.6-14.27-3.9-23.39-3.9h-16.55c-8.09,0-14.65,6.56-14.65,14.65v105.35h26.26v-48.22l1.99-.06,23.15,48.28h30.24l-29.02-50.61c3.67-1.49,6.91-3.31,9.68-5.49Zm-36.05-42.26h3.82c4.03,0,7.32.48,9.87,1.43s4.48,2.57,5.81,4.85c1.33,2.28,1.99,5.54,1.99,9.79,0,3.93-.64,7.08-1.91,9.47-1.27,2.39-3.21,4.16-5.81,5.33-2.6,1.17-5.97,1.75-10.11,1.75h-3.66v-32.63h0Zm66.08-21.64h26.26v120h-26.26v-120Zm157.05,56.89l37.51,63.11h-30.72l-28.39-55.15-1.53.41.32,54.75h-26.58v-120h26.58l-.32,51.25,28.97-51.25h29.92l-35.76,56.89Zm78.84-56.89h54.57c12.87,0,19.78,11.58,14.42,22.93l-40.36,73.56c.11.18.14.22.25.4,1.94-.1,9.35-.45,14.65-.45h28v23.55h-58.03c-11.82,0-19.56-12.38-14.38-23.01l40.89-73.65c-.11-.18-.13-.22-.24-.4-1.81.07-8.41.3-12.45.3h-27.31v-23.24h0Zm481.97,113.15l-36.12-66.85c-.28.08-.23.06-.51.14.21,3.25.73,12.92.73,29.56v44h-25.31v-105.62c0-10.2,7.1-15.85,15.85-15.85h0c5.82,0,10.18,1.48,13.95,8.32l36.14,66.88c.28-.08.23-.06.51-.14-.2-3.58-.74-14.9-.74-31.97v-41.62h25.3v105.62c0,10.21-7.1,15.85-15.85,15.85h0c-5.82,0-10.13-1.47-13.95-8.32ZM422.28,92.98v85.3c0,22.33-10.15,36.17-28.82,36.17-10.59,0-17.11-2.27-25.8-6.64l9.43-20.86c2.61,1.76,6.58,2.94,9.87,2.94,5.85,0,9.07-3.25,9.07-13.6v-83.3h26.26Zm408.46-1.47h0c-7.93,0-14.24,3.5-17.21,12.8l-32.68,108.68h27.94l4.97-21h33.96l4.97,21h27.94l-32.68-108.68c-3.02-9.3-9.28-12.8-17.21-12.8Zm-11.59,79.94s5.86-23.74,7.82-31.65c.77-3.1,2.78-14.12,3.51-18.14h.53c.73,4.02,2.74,15.03,3.51,18.14,1.96,7.91,7.82,31.65,7.82,31.65h-23.18Zm-99.2-79.97h0c7.08.02,12.69,3.53,14.63,11.93l10.41,50.05c.84,4.04,3.06,17.68,3.82,22.34.31,0,.23,0,.53,0,.84-4.66,3.3-18.31,4.23-22.35,3.49-15.12,13.95-60.48,13.95-60.48h27.05l-28.98,109.08c-2.47,8.52-8.56,12.4-16.12,12.4h-.09c-8,0-14.34-3.87-16.38-13.53l-9.12-47.46c-.77-3.99-2.78-17.37-3.5-22.18-.31,0-.22,0-.53,0-.76,4.81-2.9,18.19-3.72,22.18l-9.72,47.65c-1.77,7.73-8.42,13.35-16.34,13.35h0c-7.58,0-13.98-5.16-16.14-12.45l-28.56-109.02h27.06s9.99,45.36,13.32,60.48c.9,4.07,3.27,17.82,4.08,22.51.31,0,.23,0,.53,0,.79-4.68,3.14-18.43,4.02-22.51l10.9-50.18c1.96-8.27,7.62-11.82,14.68-11.8Zm212.9.03h0c-7.93,0-14.24,3.5-17.21,12.8l-32.68,108.68h27.94l4.96-21h33.96l4.96,21h27.94l-32.68-108.68c-3.02-9.3-9.28-12.8-17.21-12.8Zm-11.59,79.94s5.86-23.74,7.82-31.65c.77-3.1,2.78-14.12,3.51-18.14h.53c.73,4.02,2.74,15.03,3.51,18.14,1.95,7.91,7.82,31.65,7.82,31.65h-23.18Zm-791.26-18.47c0,8.28-6.72,15-15,15s-15-6.72-15-15,6.72-15,15-15,15,6.72,15,15Zm-71.57-56.57c-15.62,15.62-23.43,36.1-23.43,56.57v59.83c0,.08-.08.17-.17.17H.17c-.08,0-.17-.08-.17-.17v-59.83c0-35.9,29.1-65,65-65,.99,0,1.97.02,2.95.07.1,0,.11.14.02.2-3.34,2.43-6.53,5.15-9.54,8.16Zm10.61,102.53c25.38,25.38,66.54,25.38,91.92,0s25.38-66.54,0-91.92c-4.19-4.19-8.81-7.69-13.71-10.49-.04-.01-.06.02-.07.04-2.6,4.57-5.85,8.88-9.75,12.78l-14.53,14.53c-.11.11-.03.16.02.17,4.87,1.33,9.47,3.9,13.29,7.73,11.72,11.72,11.72,30.71,0,42.43-11.72,11.72-30.71,11.72-42.43,0-11.72-11.72-11.72-30.71,0-42.43l33.03-33.03c17.57-17.57,17.57-46.07,0-63.64-8.79-8.79-20.3-13.18-31.82-13.18h-35c-12.51,0-22.88-9.19-24.71-21.19-.19-1.24-.29-.68-.29.23v15.97c0,22.09,17.91,40,40,40h20c2.56,0,5.12.98,7.07,2.93,3.9,3.9,3.9,10.24,0,14.14l-33.03,33.03c-25.38,25.38-25.38,66.54,0,91.92Z"/></g></svg>