<svg xmlns="http://www.w3.org/2000/svg" width="300" height="61" viewBox="0 0 540 109"><path d="M151.156 78.445q2.983-2.349 4.453-5.73c.98-2.254 1.47-4.863 1.47-7.84 0-4.246-.825-7.719-2.466-10.426-1.644-2.703-4.082-4.703-7.316-6.008q-4.858-1.952-11.695-1.953h-8.278A7.33 7.33 0 0 0 120 53.816v52.672h13.129v-24.11l.996-.026 11.574 24.136h15.121L146.31 81.184c1.836-.743 3.457-1.653 4.84-2.743ZM133.13 57.316h1.91q3.022 0 4.938.715c1.273.473 2.238 1.285 2.902 2.422.668 1.14.996 2.774.996 4.899 0 1.964-.32 3.539-.953 4.734-.637 1.195-1.606 2.078-2.906 2.664q-1.95.877-5.055.875h-1.832V57.309Zm33.043-10.82H179.3v60h-13.13Zm78.523 28.445 18.754 31.555h-15.36l-14.194-27.574-.766.203.16 27.375H220v-60h13.29l-.161 25.625L247.613 46.5h14.961l-17.879 28.445Zm39.418-28.445h27.285c6.438 0 9.891 5.79 7.211 11.465l-20.18 36.777.126.203c.968-.05 4.675-.226 7.324-.226h14v11.773h-29.016c-5.91 0-9.777-6.187-7.187-11.504L304.12 58.16l-.121-.2c-.906.036-4.203.15-6.227.15h-13.652V46.487Zm240.989 56.574-18.063-33.425c-.14.039-.113.03-.254.07.106 1.625.363 6.46.363 14.781v22h-12.652V53.684c0-5.098 3.55-7.922 7.926-7.922 2.906 0 5.09.738 6.973 4.16l18.07 33.437c.14-.039.113-.03.254-.07-.098-1.789-.367-7.45-.367-15.984V46.496H540v52.809c0 5.105-3.55 7.925-7.926 7.925-2.91 0-5.062-.734-6.972-4.16M211.14 46.496v42.649c0 11.164-5.075 18.085-14.41 18.085-5.297 0-8.555-1.136-12.903-3.32l4.719-10.43c1.305.88 3.289 1.47 4.933 1.47 2.926 0 4.536-1.626 4.536-6.802V46.5h13.129Zm204.23-.734c-3.965 0-7.121 1.75-8.605 6.398l-16.34 54.34h13.969l2.484-10.5h16.98l2.485 10.5h13.972l-16.34-54.34c-1.511-4.648-4.64-6.398-8.605-6.398m-5.797 39.968s2.93-11.87 3.91-15.824c.387-1.55 1.391-7.062 1.754-9.07h.266c.367 2.008 1.371 7.516 1.758 9.07l3.91 15.824Zm-49.597-39.984c3.539.008 6.343 1.766 7.312 5.965l5.207 25.023c.418 2.02 1.527 8.84 1.91 11.172h.266c.418-2.332 1.648-9.156 2.113-11.176 1.746-7.558 6.977-30.242 6.977-30.242h13.523l-14.488 54.543c-1.238 4.258-4.281 6.2-8.063 6.2h-.043c-4 0-7.171-1.934-8.191-6.766l-4.559-23.73c-.386-1.997-1.39-8.684-1.75-11.09h-.265c-.38 2.406-1.45 9.093-1.86 11.09l-4.863 23.824c-.883 3.867-4.207 6.675-8.168 6.675-3.789 0-6.988-2.578-8.07-6.222L322.684 46.5h13.53l6.661 30.238c.45 2.035 1.637 8.91 2.04 11.258h.265c.394-2.34 1.57-9.215 2.011-11.258l5.45-25.09c.98-4.132 3.808-5.91 7.34-5.898Zm106.449.016c-3.965 0-7.121 1.75-8.606 6.398l-16.34 54.34h13.97l2.48-10.5h16.98l2.48 10.5h13.97l-16.34-54.34c-1.508-4.648-4.641-6.398-8.606-6.398Zm-5.797 39.968s2.93-11.87 3.91-15.824c.387-1.55 1.39-7.062 1.758-9.07h.262c.367 2.008 1.37 7.516 1.757 9.07.973 3.953 3.91 15.824 3.91 15.824Zm0 0" style="stroke:none;fill-rule:nonzero;fill:#1b5023;fill-opacity:1"/><path d="M65 76.496a7.5 7.5 0 0 0-7.5-7.5 7.5 7.5 0 1 0 0 15c4.14 0 7.5-3.36 7.5-7.5m0 0" style="stroke:none;fill-rule:nonzero;fill:#e79d16;fill-opacity:1"/><path d="M29.215 48.21C21.406 56.02 17.5 66.263 17.5 76.497v29.914c0 .04-.04.086-.086.086H.086c-.04 0-.086-.043-.086-.086V76.496c0-17.95 14.55-32.5 32.5-32.5.496 0 .984.008 1.477.035.046 0 .054.07.007.098a40 40 0 0 0-4.77 4.082m5.305 51.267c12.69 12.687 33.27 12.687 45.96 0 12.692-12.692 12.692-33.274 0-45.961a32.6 32.6 0 0 0-6.855-5.246c-.02-.004-.031.011-.035.02a30 30 0 0 1-4.875 6.39l-7.266 7.265c-.054.055-.015.078.012.086a14.9 14.9 0 0 1 6.644 3.864c5.86 5.859 5.86 15.355 0 21.214-5.859 5.86-15.355 5.86-21.214 0-5.86-5.859-5.86-15.355 0-21.214l16.515-16.516c8.785-8.785 8.785-23.035 0-31.82a22.43 22.43 0 0 0-15.91-6.59h-17.5c-6.258 0-11.441-4.594-12.355-10.594-.094-.621-.145-.34-.145.113v7.989c0 11.043 8.953 20 20 20h10c1.277 0 2.559.488 3.535 1.464a5.005 5.005 0 0 1 0 7.07L34.516 53.524c-12.692 12.692-12.692 33.274 0 45.961Zm0 0" style="stroke:none;fill-rule:nonzero;fill:#487e38;fill-opacity:1"/></svg>